<?xml version="1.0" encoding="UTF-8" standalone="no"?><!DOCTYPE svg PUBLIC "-//W3C//DTD SVG 1.1//EN" "http://www.w3.org/Graphics/SVG/1.1/DTD/svg11.dtd"><!-- Generated by graphviz version 2.40.1 (20161225.0304)
 --><!-- Title: graph_name Pages: 1 --><svg xmlns="http://www.w3.org/2000/svg" xmlns:xlink="http://www.w3.org/1999/xlink" width="994pt" height="73pt" viewBox="0.00 0.00 993.53 72.73">
<g id="graph0" class="graph" transform="scale(1 1) rotate(0) translate(4 68.7286)">
<title>graph_name</title>
<polygon fill="#ffffff" stroke="transparent" points="-4,4 -4,-68.7286 989.5278,-68.7286 989.5278,4 -4,4"/>
<!-- ジョンマッカーシーは -->
<g id="node1" class="node">
<title>ジョンマッカーシーは</title>
<ellipse fill="none" stroke="#000000" cx="112.4122" cy="-18" rx="112.3245" ry="18"/>
<text text-anchor="middle" x="112.4122" y="-13.8" font-family="MS Gothic" font-size="14.00" fill="#000000">ジョンマッカーシーは</text>
</g>
<!-- 作り出した -->
<g id="node2" class="node">
<title>作り出した</title>
<ellipse fill="none" stroke="#000000" cx="928.4122" cy="-18" rx="57.2314" ry="18"/>
<text text-anchor="middle" x="928.4122" y="-13.8" font-family="MS Gothic" font-size="14.00" fill="#000000">作り出した</text>
</g>
<!-- ジョンマッカーシーは&#45;&gt;作り出した -->
<g id="edge1" class="edge">
<title>ジョンマッカーシーは-&gt;作り出した</title>
<path fill="none" stroke="#000000" d="M159.9897,-34.3867C184.5711,-42.0014 215.246,-50.2003 243.4122,-54 310.5815,-63.0614 787.3241,-69.0397 853.4122,-54 867.1036,-50.8842 881.2125,-44.9431 893.4472,-38.7719"/>
<polygon fill="#000000" stroke="#000000" points="895.1869,-41.8113 902.3998,-34.0509 891.9217,-35.6195 895.1869,-41.8113"/>
</g>
<!-- AIに関する -->
<g id="node3" class="node">
<title>AIに関する</title>
<ellipse fill="none" stroke="#000000" cx="303.4122" cy="-18" rx="60.1593" ry="18"/>
<text text-anchor="middle" x="303.4122" y="-13.8" font-family="MS Gothic" font-size="14.00" fill="#000000">AIに関する</text>
</g>
<!-- 最初の -->
<g id="node4" class="node">
<title>最初の</title>
<ellipse fill="none" stroke="#000000" cx="417.4122" cy="-18" rx="35.9376" ry="18"/>
<text text-anchor="middle" x="417.4122" y="-13.8" font-family="MS Gothic" font-size="14.00" fill="#000000">最初の</text>
</g>
<!-- AIに関する&#45;&gt;最初の -->
<g id="edge2" class="edge">
<title>AIに関する-&gt;最初の</title>
<path fill="none" stroke="#000000" d="M363.9747,-18C366.2926,-18 368.6105,-18 370.9284,-18"/>
<polygon fill="#000000" stroke="#000000" points="371.0914,-21.5001 381.0914,-18 371.0914,-14.5001 371.0914,-21.5001"/>
</g>
<!-- 会議で -->
<g id="node5" class="node">
<title>会議で</title>
<ellipse fill="none" stroke="#000000" cx="518.4122" cy="-18" rx="46.9149" ry="18"/>
<text text-anchor="middle" x="518.4122" y="-13.8" font-family="MS Gothic" font-size="14.00" fill="#000000">会議で</text>
</g>
<!-- 最初の&#45;&gt;会議で -->
<g id="edge3" class="edge">
<title>最初の-&gt;会議で</title>
<path fill="none" stroke="#000000" d="M453.7091,-18C456.1971,-18 458.685,-18 461.173,-18"/>
<polygon fill="#000000" stroke="#000000" points="461.4014,-21.5001 471.4014,-18 461.4013,-14.5001 461.4014,-21.5001"/>
</g>
<!-- 会議で&#45;&gt;作り出した -->
<g id="edge4" class="edge">
<title>会議で-&gt;作り出した</title>
<path fill="none" stroke="#000000" d="M540.6712,-34.028C552.6984,-41.7016 568.1749,-50.0622 583.4122,-54 641.5037,-69.0125 794.908,-67.3138 853.4122,-54 867.1036,-50.8842 881.2125,-44.9431 893.4472,-38.7719"/>
<polygon fill="#000000" stroke="#000000" points="895.1869,-41.8113 902.3998,-34.0509 891.9217,-35.6195 895.1869,-41.8113"/>
</g>
<!-- 人工知能という -->
<g id="node6" class="node">
<title>人工知能という</title>
<ellipse fill="none" stroke="#000000" cx="668.4122" cy="-18" rx="85.3325" ry="18"/>
<text text-anchor="middle" x="668.4122" y="-13.8" font-family="MS Gothic" font-size="14.00" fill="#000000">人工知能という</text>
</g>
<!-- 用語を -->
<g id="node7" class="node">
<title>用語を</title>
<ellipse fill="none" stroke="#000000" cx="812.4122" cy="-18" rx="40.5744" ry="18"/>
<text text-anchor="middle" x="812.4122" y="-13.8" font-family="MS Gothic" font-size="14.00" fill="#000000">用語を</text>
</g>
<!-- 人工知能という&#45;&gt;用語を -->
<g id="edge5" class="edge">
<title>人工知能という-&gt;用語を</title>
<path fill="none" stroke="#000000" d="M753.631,-18C756.2428,-18 758.8547,-18 761.4666,-18"/>
<polygon fill="#000000" stroke="#000000" points="761.5409,-21.5001 771.5409,-18 761.5408,-14.5001 761.5409,-21.5001"/>
</g>
<!-- 用語を&#45;&gt;作り出した -->
<g id="edge6" class="edge">
<title>用語を-&gt;作り出した</title>
<path fill="none" stroke="#000000" d="M853.6466,-18C856.1108,-18 858.575,-18 861.0392,-18"/>
<polygon fill="#000000" stroke="#000000" points="861.1698,-21.5001 871.1698,-18 861.1697,-14.5001 861.1698,-21.5001"/>
</g>
</g>
</svg>